{"title":"The Cloth 2012 DVDRip XviD AC3 - TODE","uid":8386289,"size":676868009,"categoryP":"video","categoryS":"movies","magnet":"?xt=urn:btih:00880ae668c391db29d8b12bb2f14b3f679df76f&amp;dn=The+Cloth+2012+DVDRip+XviD+AC3+-+TODE&amp;tr=udp%3A%2F%2Ftracker.openbittorrent.com%3A80&amp;tr=udp%3A%2F%2Fopen.demonii.com%3A1337&amp;tr=udp%3A%2F%2Ftracker.coppersurfer.tk%3A6969&amp;tr=udp%3A%2F%2Fexodus.desync.com%3A6969","seeders":2,"leechers":2,"uploader":"xxxlavalxxx","files":4,"time":1366295079,"description":" &lt;a href=&quot;http://www.imdb.com/title/tt2088923/&quot; rel=&quot;nofollow&quot; target=&quot;_NEW&quot;&gt;http://www.imdb.com/title/tt2088923/&lt;/a&gt;\n\n\n[b]Plot: A godless man is recruited by a secret organization who works to combat demonic possessions in order to prepare a new generation in the battle against evil forces. \nAction/horror story centered on a secret organization formed by the Catholic Church to counteract the rising number of cases of demonic possessions across the country. The story follows a young godless man who is being recruited into the cloth in order to prepare a new generation with the tools needed to stop the rise of the ultimate evil; Beelzebub.\n\n\nDirector:\n Justin Price \n\nWriter:\n Justin Price \n\nStars:\n Danny Trejo, Eric Roberts, Rachele Brooke Smith\n\nGenres:\n  Adventure |  Sci-Fi |  Thriller \n\nCountry:\n USA \n\nLanguage:\n English [/b]\n\n\n\nFormat                                   : AVI\nFormat/Info                              : Audio Video Interleave\nFile size                                : 609 MiB\nDuration                                 : 1h 30mn\nOverall bit rate                         : 940 Kbps\nWriting application                      : Lavf54.59.103\nWriting library                          : VirtualDub build 32842/release\n\nVideo\nID                                       : 0\nFormat                                   : MPEG-4 Visual\nFormat profile                           : Simple@L3\nFormat settings, BVOP                    : No\nFormat settings, QPel                    : No\nFormat settings, GMC                     : No warppoints\nFormat settings, Matrix                  : Default (H.263)\nCodec ID                                 : XVID\nCodec ID/Hint                            : XviD\nDuration                                 : 1h 30mn\nBit rate                                 : 801 Kbps\nWidth                                    : 640 pixels\nHeight                                   : 264 pixels\nDisplay aspect ratio                     : 2.40:1\nFrame rate                               : 25.000 fps\nColor space                              : YUV\nChroma subsampling                       : 4:2:0\nBit depth                                : 8 bits\nScan type                                : Progressive\nCompression mode                         : Lossy\nBits/(Pixel*Frame)                       : 0.190\nStream size                              : 519 MiB (85%)\nWriting library                          : XviD 1.3.0.dev55\n\nAudio\nID                                       : 1\nFormat                                   : AC-3\nFormat/Info                              : Audio Coding 3\nMode extension                           : CM (complete main)\nFormat settings, Endianness              : Big\nCodec ID                                 : 2000\nDuration                                 : 1h 30mn\nBit rate mode                            : Constant\nBit rate                                 : 128 Kbps\nChannel(s)                               : 2 channels\nChannel positions                        : Front: L R\nSampling rate                            : 48.0 KHz\nBit depth                                : 16 bits\nCompression mode                         : Lossy\nStream size                              : 83.0 MiB (14%)\nAlignment                                : Aligned on interleaves\nInterleave, duration                     : 32 ms (0.80 video frame)\nInterleave, preload duration             : 512 ms\n\n\n &lt;a href=&quot;\nhttp://www.shotpix.com/images/37255595997578783399.png&quot; rel=&quot;nofollow&quot; target=&quot;_NEW&quot;&gt;\nhttp://www.shotpix.com/images/37255595997578783399.png&lt;/a&gt; &lt;a href=&quot;\nhttp://www.shotpix.com/images/77662406781474988931.png&quot; rel=&quot;nofollow&quot; target=&quot;_NEW&quot;&gt;\nhttp://www.shotpix.com/images/77662406781474988931.png&lt;/a&gt; &lt;a href=&quot;\nhttp://www.shotpix.com/images/08107235781703671919.png&quot; rel=&quot;nofollow&quot; target=&quot;_NEW&quot;&gt;\nhttp://www.shotpix.com/images/08107235781703671919.png&lt;/a&gt; &lt;a href=&quot;\nhttp://www.shotpix.com/images/88587354895683894349.png&quot; rel=&quot;nofollow&quot; target=&quot;_NEW&quot;&gt;\nhttp://www.shotpix.com/images/88587354895683894349.png&lt;/a&gt; &lt;a href=&quot;\nhttp://www.shotpix.com/images/49889758108792926168.png&quot; rel=&quot;nofollow&quot; target=&quot;_NEW&quot;&gt;\nhttp://www.shotpix.com/images/49889758108792926168.png&lt;/a&gt; &lt;a href=&quot;\nhttp://www.shotpix.com/images/75804901247927737680.png&quot; rel=&quot;nofollow&quot; target=&quot;_NEW&quot;&gt;\nhttp://www.shotpix.com/images/75804901247927737680.png&lt;/a&gt;\n\n","torrent":{"xt":"urn:btih:00880ae668c391db29d8b12bb2f14b3f679df76f","amp;dn":"The+Cloth+2012+DVDRip+XviD+AC3+-+TODE","amp;tr":["udp%3A%2F%2Ftracker.openbittorrent.com%3A80","udp%3A%2F%2Fopen.demonii.com%3A1337","udp%3A%2F%2Ftracker.coppersurfer.tk%3A6969","udp%3A%2F%2Fexodus.desync.com%3A6969"],"infoHash":"00880ae668c391db29d8b12bb2f14b3f679df76f","infoHashBuffer":{"type":"Buffer","data":[0,136,10,230,104,195,145,219,41,216,177,43,178,241,75,63,103,157,247,111]},"announce":[],"urlList":[]}}